<svg xmlns="http://www.w3.org/2000/svg" width="16" height="17" viewBox="0 0 16 17" fill="none"><link xmlns="" type="text/css" rel="stylesheet" id="dark-mode-custom-link"/><link xmlns="" type="text/css" rel="stylesheet" id="dark-mode-general-link"/><style xmlns="" lang="en" type="text/css" id="dark-mode-custom-style"/><style xmlns="" lang="en" type="text/css" id="dark-mode-native-style"/><style xmlns="" lang="en" type="text/css" id="dark-mode-native-sheet"/>
<path d="M7 1.52657C7.6188 1.1693 8.3812 1.1693 9 1.52657L13.9282 4.37187C14.547 4.72913 14.9282 5.38939 14.9282 6.10392V11.7945C14.9282 12.509 14.547 13.1693 13.9282 13.5266L9 16.3719C8.3812 16.7291 7.6188 16.7291 7 16.3719L2.0718 13.5266C1.45299 13.1693 1.0718 12.509 1.0718 11.7945V6.10392C1.0718 5.38939 1.45299 4.72913 2.0718 4.37187L7 1.52657Z" fill="#ADADAD"/>
<path d="M5.0013 11.9466C4.90686 11.9466 4.82775 11.9146 4.76397 11.8506C4.69997 11.7868 4.66797 11.7077 4.66797 11.6133C4.66797 11.5188 4.69997 11.4397 4.76397 11.3759C4.82775 11.3119 4.90686 11.2799 5.0013 11.2799H7.66797V7.55495C7.52352 7.50495 7.39852 7.42717 7.29297 7.32161C7.18741 7.21606 7.10964 7.09106 7.05964 6.94661H6.0013L6.9013 9.04661C6.93464 9.12439 6.95819 9.2105 6.97197 9.30495C6.98597 9.39939 6.98464 9.47439 6.96797 9.52995C6.9013 9.74661 6.76375 9.92584 6.5553 10.0676C6.34708 10.2092 6.10686 10.2799 5.83464 10.2799C5.56241 10.2799 5.32219 10.2092 5.11397 10.0676C4.90552 9.92584 4.76797 9.74661 4.7013 9.52995C4.68464 9.47439 4.68319 9.39939 4.69697 9.30495C4.71097 9.2105 4.73464 9.12439 4.76797 9.04661L5.66797 6.94661H5.33464C5.24019 6.94661 5.16108 6.91473 5.0973 6.85095C5.0333 6.78695 5.0013 6.70773 5.0013 6.61328C5.0013 6.51884 5.0333 6.43961 5.0973 6.37561C5.16108 6.31184 5.24019 6.27995 5.33464 6.27995H7.05964C7.1263 6.0855 7.24575 5.92573 7.41797 5.80061C7.59019 5.67573 7.78464 5.61328 8.0013 5.61328C8.21797 5.61328 8.41241 5.67573 8.58464 5.80061C8.75686 5.92573 8.8763 6.0855 8.94297 6.27995H10.668C10.7624 6.27995 10.8415 6.31184 10.9053 6.37561C10.9693 6.43961 11.0013 6.51884 11.0013 6.61328C11.0013 6.70773 10.9693 6.78695 10.9053 6.85095C10.8415 6.91473 10.7624 6.94661 10.668 6.94661H10.3346L11.2346 9.04661C11.268 9.12439 11.2916 9.2105 11.3056 9.30495C11.3194 9.39939 11.318 9.47439 11.3013 9.52995C11.2346 9.74661 11.0972 9.92584 10.889 10.0676C10.6805 10.2092 10.4402 10.2799 10.168 10.2799C9.89575 10.2799 9.65552 10.2092 9.4473 10.0676C9.23886 9.92584 9.1013 9.74661 9.03464 9.52995C9.01797 9.47439 9.01664 9.39939 9.03064 9.30495C9.04441 9.2105 9.06797 9.12439 9.1013 9.04661L10.0013 6.94661H8.94297C8.89297 7.09106 8.81519 7.21606 8.70964 7.32161C8.60408 7.42717 8.47908 7.50495 8.33464 7.55495V11.2799H11.0013C11.0957 11.2799 11.1749 11.3119 11.2386 11.3759C11.3026 11.4397 11.3346 11.5188 11.3346 11.6133C11.3346 11.7077 11.3026 11.7868 11.2386 11.8506C11.1749 11.9146 11.0957 11.9466 11.0013 11.9466H5.0013ZM9.54297 9.27995H10.793L10.168 7.82995L9.54297 9.27995ZM5.20964 9.27995H6.45964L5.83464 7.82995L5.20964 9.27995ZM8.0013 6.94661C8.09575 6.94661 8.17497 6.91473 8.23897 6.85095C8.30275 6.78695 8.33464 6.70773 8.33464 6.61328C8.33464 6.51884 8.30275 6.43961 8.23897 6.37561C8.17497 6.31184 8.09575 6.27995 8.0013 6.27995C7.90686 6.27995 7.82775 6.31184 7.76397 6.37561C7.69997 6.43961 7.66797 6.51884 7.66797 6.61328C7.66797 6.70773 7.69997 6.78695 7.76397 6.85095C7.82775 6.91473 7.90686 6.94661 8.0013 6.94661Z" fill="white"/>
</svg>