<svg width="406" height="307" fill="none" xmlns="http://www.w3.org/2000/svg">
    <g clip-path="url(#prefix__clip0_15788_46842)">
        <path opacity=".18"
            d="M72.316 287.323a154.167 154.167 0 0016.291 3.443c30.741 4.849 62.233 2.036 93.119 5.77 32.704 3.927 64.463 15.201 97.434 7.079 26.425-6.521 49.917-23.177 67.106-44.002 24.098-29.092 37.262-65.796 47.299-102.258 11.249-40.802 17.334-89.822-11.564-120.732C358.921 11.894 321.392 7.99 287.597 9.3c-17.868.703-35.735 2.425-53.602 1.843-17.868-.582-31.686-6.449-48.148-9.698-26.231-5.212-59.735 12.34-77.918 29.771-21.819 20.801-33.94 49.772-54.135 72.076-13.577 14.958-30.886 27.128-40.075 45.117a98.838 98.838 0 00-8.63 30.353c-3.297 21.988-3.491 45.504 6.74 65.239 11.782 22.74 35.346 36.486 60.487 43.322z"
            fill="rgb(56 120 244 )" />
        <path
            d="M289.004 42.053s76.075 33.796 78.694 80.852c2.618 47.056-139.4 38.571-170.455 58.863-31.056 20.292-165.655 51.129-163.061 15.782 2.594-35.347 34.57-47.541 34.57-47.541"
            stroke="#fff" stroke-width="1.164" stroke-miterlimit="10" />
        <path opacity=".18"
            d="M89.797 194.011l46.426-123.884a10.596 10.596 0 019.915-6.86h195.499a10.597 10.597 0 0110.57 10.593 10.857 10.857 0 01-.485 3.176l-44.923 140.612a10.542 10.542 0 01-10.958 7.273l-197.05-16.728a10.597 10.597 0 01-9.697-11.419c.113-.947.35-1.876.703-2.763z"
            fill="rgb(56 120 244 )" />
        <path
            d="M346.485 64.648l-44.996 140.684a10.62 10.62 0 01-10.982 7.273l-59.009-4.994-137.92-11.782a10.536 10.536 0 01-7.22-3.68 10.547 10.547 0 01-2.478-7.714c.099-.996.327-1.974.68-2.91l11.03-29.092 19.952-53.335 15.468-41.214a10.596 10.596 0 019.915-6.86h195.499a10.573 10.573 0 0110.57 10.57 10.296 10.296 0 01-.509 3.054z"
            fill="#fff" />
        <path opacity=".18" d="M152.805 187.053l14.425-39.59h60.026l-15.661 40.681-58.79-1.091z" fill="rgb(56 120 244 )" />
        <path
            d="M346.486 64.648l-44.995 140.684a10.62 10.62 0 01-10.983 7.273l-59.008-4.994 54.426-147.739.413-1.14 60.463.631c-.01.178-.01.356 0 .533a10.526 10.526 0 01-.316 4.752z"
            fill="rgb(56 120 244 )" />
        <path opacity=".18"
            d="M155.4 75.8l-14.862 49.287a3.727 3.727 0 01-3.636 2.739l-39.468-1.139 19.976-53.335 34.668-2.037A3.372 3.372 0 01155.4 75.8z"
            fill="rgb(56 120 244 )" />
        <path
            d="M64.947 112.965l15.37-43.517a3.758 3.758 0 013.273-2.545l64.778-3.83a3.416 3.416 0 013.483 2.883 3.422 3.422 0 01-.137 1.626l-14.862 49.311a3.782 3.782 0 01-3.636 2.763l-65.312-1.963a3.428 3.428 0 01-2.7-1.6 3.417 3.417 0 01-.257-3.128z"
            fill="#fff" />
        <path
            d="M346.895 59.363V60.527l-60.972-.63-154.915-1.577v-1.163l155.327 1.576 60.463.63h.097zM86.158 108.407h-8.29l4.363-11.273h8.267l-4.34 11.273zM96.365 108.407h-8.29l8.872-22.934h8.292l-8.874 22.934zM106.596 108.407h-8.291l5.406-13.964h8.267l-5.382 13.964zM116.803 108.407h-8.291L120.197 78.2h8.291l-11.685 30.207z"
            fill="rgb(56 120 244 )" />
        <path d="M96.365 108.407h-8.29l8.872-22.934h8.292l-8.874 22.934z"
            fill="url(#prefix__paint0_linear_15788_46842)" />
        <path d="M116.803 108.407h-8.291L120.197 78.2h8.291l-11.685 30.207z"
            fill="url(#prefix__paint1_linear_15788_46842)" />
        <path d="M127.033 108.407h-8.291l14.934-38.644h8.291l-14.934 38.644z" fill="rgb(56 120 244 )" />
        <path
            d="M318.461 95.025a14.183 14.183 0 10-.291.945l.145-.46.146-.485zM287.454 185.041a14.251 14.251 0 00-20.385-15.618 14.252 14.252 0 00-6.938 7.763v.46c0 .146 0 .316-.169.461a14.227 14.227 0 008.847 17.186 14.23 14.23 0 0017.82-7.489c.146-.46.267-.921.412-1.382.146-.46.243-.921.413-1.381zM301.95 135.22a14.227 14.227 0 00-14.231-14.23 14.231 14.231 0 00-14.231 14.23v.994a14.234 14.234 0 0014.231 14.231 14.231 14.231 0 0014.231-14.231v-.994z"
            fill="#fff" />
        <path
            d="M304.302 91.122l3.345-10.74a11.799 11.799 0 00-2.909-.509 11.271 11.271 0 00-11.176 7.88 11.784 11.784 0 00-.509 2.908c-.031.985.059 1.97.266 2.934a11.009 11.009 0 002.716 5.14 11.096 11.096 0 0010.739 3.345c.95-.222 1.869-.556 2.74-.994a11.93 11.93 0 002.424-1.697 11.423 11.423 0 003.104-4.849l-10.74-3.418zM287.913 135.681v-11.249a11.35 11.35 0 00-5.6 1.527c-.89.48-1.706 1.084-2.424 1.794a11.206 11.206 0 00-2.925 10.867 11.197 11.197 0 007.992 7.922c1.902.533 3.915.533 5.818 0a11.364 11.364 0 002.715-1.091l-5.576-9.77zM273.537 182.034l3.491-10.691a11.566 11.566 0 00-5.818-.315 11.253 11.253 0 00-8.898 10.425c-.052.976.029 1.955.243 2.909.199.96.525 1.89.97 2.764a11.148 11.148 0 006.448 5.6l3.491-10.716.073.024z"
            fill="rgb(56 120 244 )" />
        <path
            d="M130.838 139.172c-.12.458-.383.866-.751 1.164a3.594 3.594 0 01-1.721.461 3.748 3.748 0 00-1.794.606 1.007 1.007 0 000 .921l.703 3.927a1.59 1.59 0 010 .946 1.384 1.384 0 01-.382.41 1.37 1.37 0 01-.515.22c-1.406.558-3.152 1.043-4.267 0a4.344 4.344 0 01-1.043-2.109 43.149 43.149 0 01-2.182-13.649 9.695 9.695 0 013.201-7.467 9.453 9.453 0 016.909-1.6 3.34 3.34 0 012.57 1.77c.315.703 0 1.382 0 2.133a21.27 21.27 0 00.218 3.297c.103.508.233 1.009.388 1.503.188.417.318.858.388 1.309a5.387 5.387 0 01-.703 2.425c-.386.882-.686 1.8-.897 2.739a5.107 5.107 0 01-.122.994zM133.992 168.264s4.849 5.188 8.922 5.188 22.037-16.97 22.037-16.97a7.925 7.925 0 004.121-4.655c.17-.703.122-1.43.243-2.133a9.444 9.444 0 011.867-3.879c.153-.155.269-.342.341-.547a1.47 1.47 0 00.071-.641c-.146-.533-.776-.703-1.309-.8a7.099 7.099 0 00-5.067.412 6.42 6.42 0 00-2.206 3.588 4.35 4.35 0 00-1.94-1.552 1.17 1.17 0 00-.509 1.407c.181.512.391 1.014.63 1.503a4.848 4.848 0 01-2.036 4.848 21.64 21.64 0 01-2.982 1.94l-11.007 6.424c-1.115.655-2.424 1.334-3.636.728-.558-.291-.946-.849-1.552-1.116a2.763 2.763 0 00-2.618.825 16.482 16.482 0 00-3.37 5.43zM90.134 240.073a10.185 10.185 0 01-4.485 7.273c-4.51 2.109-10.304 2.643-15.152 3.685-2.934.655-5.867 1.309-8.752 2.085-2.425.655-5.019.582-6.667 2.715-.994 1.261-1.649 3.055-3.2 3.419a2.883 2.883 0 01-2.885-1.31 6.857 6.857 0 01-.97-3.224 3.834 3.834 0 010-1.285c.128-.451.361-.866.679-1.212a13.476 13.476 0 015.867-3.127 37.228 37.228 0 005.454-2.425 28.418 28.418 0 014.461-1.745l8.85-3.225c2.084-.751 5.211-1.042 6.011-3.418.3-1.164.455-2.361.461-3.564.17-2.383.902-4.692 2.133-6.739.15-.344.394-.638.704-.849a2.425 2.425 0 011.188-.291 7.28 7.28 0 013.345.388 5.853 5.853 0 012.982 3.37 12.12 12.12 0 01.533 4.558 28.71 28.71 0 01-.557 4.921z"
            fill="#8A4621" />
        <path
            d="M50.302 251.273c-.145.631-.63 1.14-.8 1.77a4.17 4.17 0 000 1.552l.46 2.424a1.817 1.817 0 002.086 1.721.694.694 0 01.509.291.605.605 0 010 .412l-.679 3.079a14.97 14.97 0 01-1.333 3.71c-.191.05-.392.05-.582 0-1.552 0-2.158-3.928-2.715-5.407a10.642 10.642 0 01-.364-4.63c0-.849.145-1.673.267-2.424.008-.829.164-1.65.46-2.425a1.12 1.12 0 011.043-.606c.484.024 1.818-.17 1.648.533z"
            fill="rgb(56 120 244 )" />
        <path
            d="M116.029 240.534a10.059 10.059 0 011.357 8.534c-2.06 4.509-6.133 8.703-9.115 12.63a278.626 278.626 0 00-5.358 7.273c-1.406 2.061-3.418 3.685-3.297 6.376 0 1.6.727 3.394-.218 4.679a2.911 2.911 0 01-3.055.873 6.821 6.821 0 01-2.812-1.818 3.9 3.9 0 01-.8-.994 3.008 3.008 0 01-.267-1.382 13.21 13.21 0 012.424-6.182 35.782 35.782 0 002.425-5.455c.629-1.48 1.392-2.9 2.279-4.242l4.63-8.195c1.115-1.915 3.321-4.17 2.424-6.497a14.255 14.255 0 00-1.963-3.006 15.515 15.515 0 01-2.764-6.497 2.87 2.87 0 010-1.116c.146-.385.388-.727.703-.994a7.411 7.411 0 012.837-1.866 5.686 5.686 0 014.436.63 11.769 11.769 0 013.37 3.103 29.337 29.337 0 012.764 4.146z"
            fill="#8A4621" />
        <path
            d="M92.994 274.887c.291.582.267 1.285.558 1.866.27.445.634.826 1.066 1.116l1.867 1.527c.218.19.463.345.728.461a2.62 2.62 0 001.987-.485.464.464 0 01.452-.159.465.465 0 01.348.328l1.479 2.813a14.181 14.181 0 011.406 3.66 1.185 1.185 0 01-.387.461c-1.213.994-4.195-1.6-5.552-2.424a10.77 10.77 0 01-3.37-3.128c-.485-.679-.945-1.382-1.406-2.06a7.276 7.276 0 01-1.164-2.061 1.188 1.188 0 01.412-1.188c.316-.364 1.212-1.358 1.576-.727zM140.076 162.131c-.095.319-.29.6-.557.8-1.843 1.769-3.71 3.491-5.528 5.26a14.542 14.542 0 01-1.891 1.528c-.606.363-1.26.606-1.866.969-.206.13-.4.276-.582.437a11.35 11.35 0 00-2.91 4.267c-.46.994-.897 2.036-1.26 3.079a47.415 47.415 0 00-2.158 8.339c-2.788 16.195.849 32.705 2.74 48.948.242 1.794.412 3.588.557 5.382 0 .751.146 1.527.194 2.303a3.081 3.081 0 01-.315 2.012 3.01 3.01 0 01-1.479.946c-8.194 3.321-17.431 5.939-25.746 2.981-5.382-1.915-9.698-5.939-14.4-9.188-4.704-3.248-10.571-5.77-16.074-4.17a16.753 16.753 0 014.145-10.764 29.419 29.419 0 012.934-3.321l2.182-2.158c7.273-7.103 13.503-13.237 17.407-23.201 1.575-4.048 1.89-8.8 4.557-12.339 2.425-3.031 4.291-3.346 4.849-7.419a90.94 90.94 0 013.467-15.007 36.352 36.352 0 016.764-12.121 17.777 17.777 0 014.654-4.17 8.952 8.952 0 016.037-1.237 6.01 6.01 0 014.63 3.807c1.867 5.503 6.716 7.903 9.358 13.115.205.262.308.589.291.922z"
            fill="rgb(56 120 244 )" />
        <path
            d="M133.023 122.759a5.26 5.26 0 01-3.297 3.758c-3.758 1.479-8.946.873-7.903 6.231a18.28 18.28 0 01-.922 11.806 11.662 11.662 0 00-2.133 4.631c.024.743.121 1.482.291 2.206a12.125 12.125 0 01-9.698 13.964 9.34 9.34 0 01-1.406.17 8.823 8.823 0 00-4.145.703 7.52 7.52 0 00-2.425 3.806 8.414 8.414 0 01-2.74 3.976c-2.593 1.745-6.06.679-8.97-.509a23.052 23.052 0 01-6.133-3.297 8.462 8.462 0 01-3.297-5.94 14.404 14.404 0 00-.073-4.558 21.665 21.665 0 00-1.72-2.424 8.704 8.704 0 01.75-8.146c.265-.42.439-.89.51-1.382a4.444 4.444 0 00-.34-1.382 7.636 7.636 0 014.146-8.121 38.135 38.135 0 019.358-2.909 15.734 15.734 0 0010.691-9.31c1.867-3.976 3.443-8.315 7.71-10.303a21.627 21.627 0 0119.904 2.303 4.367 4.367 0 011.842 4.727z"
            fill="#473F47" />
        <path
            d="M132.102 169.792c-.607.363-1.261.606-1.867.969-.21.124-.405.27-.582.437a13.748 13.748 0 00-4.17 7.273 49.342 49.342 0 00-2.182 8.364 94.377 94.377 0 00-.654 22.279 26.01 26.01 0 01-.243 8.122 25.677 25.677 0 01-5.891-13.383c-.339-2.691-.242-5.454-.8-8.121-.436-1.915-1.212-3.758-1.527-5.697a1.287 1.287 0 000-.291c-.509-3.491.848-4 2.812-6.013a19.006 19.006 0 004.17-7.273 413.91 413.91 0 015.067-14.327c-.364 1.285 4.363 5.26 5.867 7.661z"
            fill="url(#prefix__paint2_linear_15788_46842)" />
        <path opacity=".38"
            d="M126.645 241.213a40.659 40.659 0 01-25.625-.655 25.108 25.108 0 01-8.461-4.849c-.946-.872-1.794-1.842-2.764-2.667a21.868 21.868 0 00-4.849-3.006c-3.757-1.794-7.685-2.933-11.49-4.485l-.413-.169c.9-1.174 1.88-2.284 2.933-3.322l2.207-2.157h.484c2.43.331 4.804.991 7.055 1.963a67.9 67.9 0 0110.158 7.128 66.512 66.512 0 0010.037 5.552 29.942 29.942 0 006.958 2.545 31.21 31.21 0 007.273.146c2.07.048 4.118-.445 5.939-1.431.219 1.818.388 3.588.558 5.407z"
            fill="#fff" />
        <path opacity=".18" d="M169.969 135.73l14.425-39.614h60.05l-15.685 40.68-58.79-1.066z" fill="rgb(56 120 244 )" />
        <path d="M250.312 21.252l24.85 11.492-4.194 14.643-20.656-26.135zM250.312 21.252h38.717l-11.782 7.2-26.935-7.2z"
            fill="rgb(56 120 244 )" />
        <path d="M281.732 39.217l-6.57-6.473-24.85-11.492 26.935 7.2 4.485 10.765z" fill="rgb(56 120 244 )" />
        <path d="M281.732 39.217l-6.57-6.473-24.85-11.492 26.935 7.2 4.485 10.765z"
            fill="url(#prefix__paint3_linear_15788_46842)" />
        <path d="M281.732 39.217l-6.57-6.473-24.85-11.492 31.42 17.965z" fill="rgb(56 120 244 )" />
    </g>
    <defs>
        <linearGradient id="prefix__paint0_linear_15788_46842" x1="91.229" y1="61.062" x2="154.316" y2="207.376"
            gradientUnits="userSpaceOnUse">
            <stop offset=".01" />
            <stop offset=".08" stop-opacity=".69" />
            <stop offset=".21" stop-opacity=".32" />
            <stop offset="1" stop-opacity="0" />
        </linearGradient>
        <linearGradient id="prefix__paint1_linear_15788_46842" x1="112.243" y1="52.009" x2="175.329" y2="198.303"
            gradientUnits="userSpaceOnUse">
            <stop offset=".01" />
            <stop offset=".08" stop-opacity=".69" />
            <stop offset=".21" stop-opacity=".32" />
            <stop offset="1" stop-opacity="0" />
        </linearGradient>
        <linearGradient id="prefix__paint2_linear_15788_46842" x1="78.039" y1="179.513" x2="183.207" y2="202.738"
            gradientUnits="userSpaceOnUse">
            <stop offset=".01" />
            <stop offset=".13" stop-opacity=".69" />
            <stop offset=".25" stop-opacity=".32" />
            <stop offset="1" stop-opacity="0" />
        </linearGradient>
        <linearGradient id="prefix__paint3_linear_15788_46842" x1="262.725" y1="5.64" x2="272.932" y2="81.982"
            gradientUnits="userSpaceOnUse">
            <stop offset=".01" />
            <stop offset=".08" stop-opacity=".69" />
            <stop offset=".21" stop-opacity=".32" />
            <stop offset="1" stop-opacity="0" />
        </linearGradient>
        <clipPath id="prefix__clip0_15788_46842">
            <path fill="#fff" transform="translate(0 .5)" d="M0 0h406v306H0z" />
        </clipPath>
    </defs>
</svg>