<?xml version="1.0" standalone="no"?>
<!DOCTYPE svg PUBLIC "-//W3C//DTD SVG 20010904//EN"
 "http://www.w3.org/TR/2001/REC-SVG-20010904/DTD/svg10.dtd">
<svg version="1.0" xmlns="http://www.w3.org/2000/svg"
 width="612.000000pt" height="612.000000pt" viewBox="0 0 612.000000 612.000000"
 preserveAspectRatio="xMidYMid meet">
<metadata>
Created by potrace 1.14, written by Peter Selinger 2001-2017
</metadata>
<g transform="translate(0.000000,612.000000) scale(0.100000,-0.100000)"
fill="#000000" stroke="none">
<path d="M2695 4860 c-223 -35 -388 -87 -572 -181 -450 -231 -783 -624 -939
-1109 -62 -192 -95 -459 -82 -660 11 -160 20 -219 59 -369 138 -530 511 -979
1004 -1212 158 -74 317 -123 505 -155 112 -20 423 -26 530 -11 184 26 404 90
555 162 569 272 961 794 1054 1406 24 159 22 480 -4 599 -3 14 -8 39 -11 55
-45 255 -177 543 -357 775 -47 62 -210 229 -288 297 -125 108 -396 262 -559
316 -78 27 -217 65 -260 71 -14 3 -45 8 -70 11 -25 4 -54 9 -65 12 -11 2 -101
6 -200 8 -140 3 -206 0 -300 -15z"/>
</g>
</svg>
